<?xml version="1.0" encoding="utf-8"?>
<!-- Generator: Adobe Illustrator 24.1.0, SVG Export Plug-In . SVG Version: 6.00 Build 0)  -->
<svg version="1.1" id="Capa_1" xmlns="http://www.w3.org/2000/svg" xmlns:xlink="http://www.w3.org/1999/xlink" x="0px" y="0px"
	 viewBox="0 0 97.8 97.8" style="enable-background:new 0 0 97.8 97.8;" xml:space="preserve">
<style type="text/css">
	.st0{fill:#E6FF00;}
</style>
<g>
	<path class="st0" d="M48.9,0C21.9,0,0,21.9,0,48.9s21.9,48.9,48.9,48.9s48.9-21.9,48.9-48.9S75.9,0,48.9,0z M83.4,32.8
		c-0.3,6.7-5,16-14.1,27.7C59.9,72.7,52,78.8,45.4,78.8c-4,0-7.4-3.7-10.2-11.2c-1.9-6.8-3.7-13.7-5.6-20.5C27.6,39.7,25.3,36,23,36
		c-0.5,0-2.3,1.1-5.4,3.3L14.3,35c3.4-3,6.8-6,10.1-9c4.6-3.9,8-6,10.3-6.2c5.4-0.5,8.7,3.2,9.9,11c1.3,8.5,2.3,13.8,2.8,15.9
		c1.6,7.1,3.3,10.6,5.1,10.6c1.4,0,3.6-2.3,6.5-6.9c2.9-4.6,4.4-8.1,4.7-10.4c0.4-4-1.1-5.9-4.7-5.9c-1.7,0-3.4,0.4-5.1,1.1
		c3.4-11.1,9.9-16.6,19.5-16.2C80.5,19.2,83.8,23.8,83.4,32.8z"/>
</g>
</svg>
